<svg height="2030" width="720" xmlns="http://www.w3.org/2000/svg">
<rect height="2030" fill="#555" width="720"></rect>
<text fill="#7f7" font-family="Courier New" font-size="12" xml:space="preserve">
<tspan x="10" y="26"></tspan>
<tspan x="10" y="42">&gt; npmdoc-yargs@0.0.1 test /home/travis/build/npmdoc/node-npmdoc-yargs</tspan>
<tspan x="10" y="58">&gt; (set -e; export PORT=$(utility2 shServerPortRandom); utility2 test test.js)</tspan>
<tspan x="10" y="74"></tspan>
<tspan x="10" y="90"></tspan>
<tspan x="10" y="106">[MODE_BUILD=npmTest] - 2017-03-19T03:54:35Z - npm-testing /home/travis/build/npmdoc/node-npmdoc-\</tspan>
<tspan x="10" y="122">yargs</tspan>
<tspan x="10" y="138"></tspan>
<tspan x="10" y="154"></tspan>
<tspan x="10" y="170">covering $ /home/travis/.nvm/versions/node/v7.7.3/bin/node /home/travis/build/npmdoc/node-npmdoc\</tspan>
<tspan x="10" y="186">-yargs/test.js</tspan>
<tspan x="10" y="202">merging file:///home/travis/build/npmdoc/node-npmdoc-yargs/tmp/build/test-report.json to test-re\</tspan>
<tspan x="10" y="218">port</tspan>
<tspan x="10" y="234">&gt; server listening on http-port 39662</tspan>
<tspan x="10" y="250">apidocCreate - normalizing dir yargs</tspan>
<tspan x="10" y="266">apidocCreate - normalized dir /home/travis/build/npmdoc/node-npmdoc-yargs/node_modules/yargs</tspan>
<tspan x="10" y="282">created apidoc file:///home/travis/build/npmdoc/node-npmdoc-yargs/tmp/build/apidoc.html</tspan>
<tspan x="10" y="298"></tspan>
<tspan x="10" y="314"></tspan>
<tspan x="10" y="330">browserTest - created electron entry-page /home/travis/build/npmdoc/node-npmdoc-yargs/tmp/electr\</tspan>
<tspan x="10" y="346">on.15ae4b3d7e30.20ede4fef975a.html</tspan>
<tspan x="10" y="362"></tspan>
<tspan x="10" y="378">apidocCreate - normalizing dir yargs</tspan>
<tspan x="10" y="394">apidocCreate - normalized dir /home/travis/build/npmdoc/node-npmdoc-yargs/node_modules/yargs</tspan>
<tspan x="10" y="410">Xlib:  extension "RANDR" missing on display ":99.0".</tspan>
<tspan x="10" y="426">[node test-case 1 of 6 passed] - testCase_buildLib_default</tspan>
<tspan x="10" y="442">[node test-case 2 of 6 passed] - testCase_buildReadme_default</tspan>
<tspan x="10" y="458">[node test-case 3 of 6 passed] - testCase_buildTest_default</tspan>
<tspan x="10" y="474"></tspan>
<tspan x="10" y="490">browserTest - created electron entry-page /home/travis/build/npmdoc/node-npmdoc-yargs/tmp/electr\</tspan>
<tspan x="10" y="506">on.15ae4b3d8cd0.9874303cafa66.html</tspan>
<tspan x="10" y="522"></tspan>
<tspan x="10" y="538">(node:4356) DeprecationWarning: node --debug is deprecated. Please use node --inspect instead.</tspan>
<tspan x="10" y="554">Xlib:  extension "RANDR" missing on display ":99.0".</tspan>
<tspan x="10" y="570">&gt; server listening on http-port 38377</tspan>
<tspan x="10" y="586">merging file:///home/travis/build/npmdoc/node-npmdoc-yargs/tmp/build/test-report.json to test-re\</tspan>
<tspan x="10" y="602">port</tspan>
<tspan x="10" y="618">Xlib:  extension "RANDR" missing on display ":99.0".</tspan>
<tspan x="10" y="634">[4370:0319/035436:WARNING:audio_manager.cc(314)] Multiple instances of AudioManager detected</tspan>
<tspan x="10" y="650">[4370:0319/035436:WARNING:audio_manager.cc(275)] Multiple instances of AudioManager detected</tspan>
<tspan x="10" y="666">[4413:0319/035436:ERROR:sandbox_linux.cc(343)] InitializeSandbox() called with multiple threads \</tspan>
<tspan x="10" y="682">in process gpu-process. </tspan>
<tspan x="10" y="698">[4370:0319/035437:ERROR:browser_gpu_channel_host_factory.cc(131)] Failed to create channel.</tspan>
<tspan x="10" y="714">merging file:///home/travis/build/npmdoc/node-npmdoc-yargs/tmp/build/test-report.json to test-re\</tspan>
<tspan x="10" y="730">port</tspan>
<tspan x="10" y="746">Xlib:  extension "RANDR" missing on display ":99.0".</tspan>
<tspan x="10" y="762">[4392:0319/035437:WARNING:audio_manager.cc(314)] Multiple instances of AudioManager detected</tspan>
<tspan x="10" y="778">[4392:0319/035437:WARNING:audio_manager.cc(275)] Multiple instances of AudioManager detected</tspan>
<tspan x="10" y="794">[4445:0319/035437:ERROR:sandbox_linux.cc(343)] InitializeSandbox() called with multiple threads \</tspan>
<tspan x="10" y="810">in process gpu-process. </tspan>
<tspan x="10" y="826"></tspan>
<tspan x="10" y="842">browserTest - opened url file:///home/travis/build/npmdoc/node-npmdoc-yargs/tmp/build/apidoc.htm\</tspan>
<tspan x="10" y="858">l</tspan>
<tspan x="10" y="874"></tspan>
<tspan x="10" y="890"></tspan>
<tspan x="10" y="906">browserTest - opened url http://127.0.0.1:39662?modeTest=1</tspan>
<tspan x="10" y="922"></tspan>
<tspan x="10" y="938">[4392:0319/035439:INFO:CONSOLE(203)] "----------|-----------|-----------|-----------|-----------\</tspan>
<tspan x="10" y="954">|</tspan>
<tspan x="10" y="970">File      |   % Stmts |% Branches |   % Funcs |   % Lines |</tspan>
<tspan x="10" y="986">----------|-----------|-----------|-----------|-----------|</tspan>
<tspan x="10" y="1002">----------|-----------|-----------|-----------|-----------|</tspan>
<tspan x="10" y="1018">All files |       100 |       100 |       100 |       100 |</tspan>
<tspan x="10" y="1034">----------|-----------|-----------|-----------|-----------|</tspan>
<tspan x="10" y="1050">", source: file:///home/travis/build/npmdoc/node-npmdoc-yargs/tmp/electron.15ae4b3d8cd0.9874303c\</tspan>
<tspan x="10" y="1066">afa66.html (203)</tspan>
<tspan x="10" y="1082">[4392:0319/035439:INFO:CONSOLE(203)] "created coverage file:///tmp/build/coverage.html/index.htm\</tspan>
<tspan x="10" y="1098">l", source: file:///home/travis/build/npmdoc/node-npmdoc-yargs/tmp/electron.15ae4b3d8cd0.9874303\</tspan>
<tspan x="10" y="1114">cafa66.html (203)</tspan>
<tspan x="10" y="1130">[node test-case 4 of 6 passed] - testCase_buildApp_default</tspan>
<tspan x="10" y="1146"></tspan>
<tspan x="10" y="1162">browserTest - created screen-capture file:///home/travis/build/npmdoc/node-npmdoc-yargs/tmp/buil\</tspan>
<tspan x="10" y="1178">d/screen-capture.npmTest.browser._2Fhome_2Ftravis_2Fbuild_2Fnpmdoc_2Fnode-npmdoc-yargs_2Ftmp_2Fb\</tspan>
<tspan x="10" y="1194">uild_2Fapidoc.html.png</tspan>
<tspan x="10" y="1210"></tspan>
<tspan x="10" y="1226"></tspan>
<tspan x="10" y="1242">browserTest - exit-code 0 - file:///home/travis/build/npmdoc/node-npmdoc-yargs/tmp/build/apidoc.\</tspan>
<tspan x="10" y="1258">html</tspan>
<tspan x="10" y="1274"></tspan>
<tspan x="10" y="1290">[node test-case 5 of 6 passed] - testCase_buildApidoc_default</tspan>
<tspan x="10" y="1306"></tspan>
<tspan x="10" y="1322">browserTest - created screen-capture file:///home/travis/build/npmdoc/node-npmdoc-yargs/tmp/buil\</tspan>
<tspan x="10" y="1338">d/screen-capture.npmTest.browser..png</tspan>
<tspan x="10" y="1354"></tspan>
<tspan x="10" y="1370"></tspan>
<tspan x="10" y="1386">browserTest - exit-code 0 - http://127.0.0.1:39662?modeTest=1</tspan>
<tspan x="10" y="1402"></tspan>
<tspan x="10" y="1418"></tspan>
<tspan x="10" y="1434">browserTest - merged coverage from /home/travis/build/npmdoc/node-npmdoc-yargs/tmp/coverage.npmT\</tspan>
<tspan x="10" y="1450">est.browser.%2F.json</tspan>
<tspan x="10" y="1466"></tspan>
<tspan x="10" y="1482"></tspan>
<tspan x="10" y="1498">browserTest - merging test-report from /home/travis/build/npmdoc/node-npmdoc-yargs/tmp/test-repo\</tspan>
<tspan x="10" y="1514">rt.npmTest.browser.%2F.json</tspan>
<tspan x="10" y="1530"></tspan>
<tspan x="10" y="1546">[node test-case 6 of 6 passed] - testCase_webpage_default</tspan>
<tspan x="10" y="1562">--------------------------|-----------|-----------|-----------|-----------|</tspan>
<tspan x="10" y="1578">File                      |   % Stmts |% Branches |   % Funcs |   % Lines |</tspan>
<tspan x="10" y="1594">--------------------------|-----------|-----------|-----------|-----------|</tspan>
<tspan x="10" y="1610">   node-npmdoc-yargs/     |       100 |       100 |       100 |       100 |</tspan>
<tspan x="10" y="1626">      example.js          |       100 |       100 |       100 |       100 |</tspan>
<tspan x="10" y="1642">      lib.npmdoc_yargs.js |       100 |       100 |       100 |       100 |</tspan>
<tspan x="10" y="1658">      test.js             |       100 |       100 |       100 |       100 |</tspan>
<tspan x="10" y="1674">--------------------------|-----------|-----------|-----------|-----------|</tspan>
<tspan x="10" y="1690">All files                 |       100 |       100 |       100 |       100 |</tspan>
<tspan x="10" y="1706">--------------------------|-----------|-----------|-----------|-----------|</tspan>
<tspan x="10" y="1722"></tspan>
<tspan x="10" y="1738">created coverage file:///home/travis/build/npmdoc/node-npmdoc-yargs/tmp/build/coverage.html/inde\</tspan>
<tspan x="10" y="1754">x.html</tspan>
<tspan x="10" y="1770">merging file:///home/travis/build/npmdoc/node-npmdoc-yargs/tmp/build/test-report.json to test-re\</tspan>
<tspan x="10" y="1786">port</tspan>
<tspan x="10" y="1802"></tspan>
<tspan x="10" y="1818">-------------------------------------------------------</tspan>
<tspan x="10" y="1834">| test-report - buildNpmdoc - node - linux v7.7.3 - 2017-03-19T03:54:25.617Z</tspan>
<tspan x="10" y="1850">|   15973 ms            0 failed        6 passed      |</tspan>
<tspan x="10" y="1866">-------------------------------------------------------</tspan>
<tspan x="10" y="1882"></tspan>
<tspan x="10" y="1898">created test-report file:///home/travis/build/npmdoc/node-npmdoc-yargs/tmp/build/test-report.htm\</tspan>
<tspan x="10" y="1914">l</tspan>
<tspan x="10" y="1930"></tspan>
<tspan x="10" y="1946"></tspan>
<tspan x="10" y="1962">npmTest - 0 failed tests</tspan>
<tspan x="10" y="1978"></tspan>
<tspan x="10" y="1994"></tspan>
<tspan x="10" y="2010">[MODE_BUILD=npmTest] - 2017-03-19T03:54:44Z - EXIT_CODE - 0</tspan>
</text>
</svg>
